<mxfile host="app.diagrams.net" modified="2022-04-17T06:32:02.141Z" agent="5.0 (X11; Linux x86_64) AppleWebKit/537.36 (KHTML, like Gecko) Chrome/99.0.4844.82 Safari/537.36" etag="sKUhfdAfYQ9qE9SJw8qp" version="17.4.5" type="github">
  <diagram id="2B6EBatFKxE9Zw0DW82s" name="第 1 页">
    <mxGraphModel dx="1036" dy="557" grid="0" gridSize="10" guides="1" tooltips="1" connect="1" arrows="1" fold="1" page="1" pageScale="1" pageWidth="1169" pageHeight="827" math="0" shadow="0">
      <root>
        <mxCell id="0" />
        <mxCell id="1" parent="0" />
        <mxCell id="B5NuY8xFC4fIw8X8gln_-1" value="&lt;font style=&quot;font-size: 11px ; line-height: 1.2&quot;&gt;:商品信息页面&lt;/font&gt;" style="shape=umlLifeline;perimeter=lifelinePerimeter;whiteSpace=wrap;html=1;container=1;collapsible=0;recursiveResize=0;outlineConnect=0;rounded=1;shadow=0;comic=0;labelBackgroundColor=none;strokeWidth=1;fontFamily=Verdana;fontSize=12;align=center;" vertex="1" parent="1">
          <mxGeometry x="344" y="207" width="100" height="384" as="geometry" />
        </mxCell>
        <mxCell id="B5NuY8xFC4fIw8X8gln_-2" value="" style="html=1;points=[];perimeter=orthogonalPerimeter;rounded=0;shadow=0;comic=0;labelBackgroundColor=none;strokeWidth=1;fontFamily=Verdana;fontSize=12;align=center;" vertex="1" parent="B5NuY8xFC4fIw8X8gln_-1">
          <mxGeometry x="45" y="100" width="10" height="203" as="geometry" />
        </mxCell>
        <mxCell id="B5NuY8xFC4fIw8X8gln_-3" value=":系统后台" style="shape=umlLifeline;perimeter=lifelinePerimeter;whiteSpace=wrap;html=1;container=1;collapsible=0;recursiveResize=0;outlineConnect=0;rounded=1;shadow=0;comic=0;labelBackgroundColor=none;strokeWidth=1;fontFamily=Verdana;fontSize=12;align=center;" vertex="1" parent="1">
          <mxGeometry x="504" y="207" width="100" height="383" as="geometry" />
        </mxCell>
        <mxCell id="B5NuY8xFC4fIw8X8gln_-4" value="" style="html=1;points=[];perimeter=orthogonalPerimeter;rounded=0;shadow=0;comic=0;labelBackgroundColor=none;strokeWidth=1;fontFamily=Verdana;fontSize=12;align=center;" vertex="1" parent="B5NuY8xFC4fIw8X8gln_-3">
          <mxGeometry x="45" y="129" width="10" height="141" as="geometry" />
        </mxCell>
        <mxCell id="B5NuY8xFC4fIw8X8gln_-5" value=":DataBase" style="shape=umlLifeline;perimeter=lifelinePerimeter;whiteSpace=wrap;html=1;container=1;collapsible=0;recursiveResize=0;outlineConnect=0;rounded=1;shadow=0;comic=0;labelBackgroundColor=none;strokeWidth=1;fontFamily=Verdana;fontSize=12;align=center;" vertex="1" parent="1">
          <mxGeometry x="644" y="207" width="100" height="398" as="geometry" />
        </mxCell>
        <mxCell id="B5NuY8xFC4fIw8X8gln_-6" value="" style="html=1;points=[];perimeter=orthogonalPerimeter;rounded=0;shadow=0;comic=0;labelBackgroundColor=none;strokeWidth=1;fontFamily=Verdana;fontSize=12;align=center;" vertex="1" parent="B5NuY8xFC4fIw8X8gln_-5">
          <mxGeometry x="45" y="110" width="10" height="237" as="geometry" />
        </mxCell>
        <mxCell id="B5NuY8xFC4fIw8X8gln_-7" value=":用户" style="shape=umlLifeline;perimeter=lifelinePerimeter;whiteSpace=wrap;html=1;container=1;collapsible=0;recursiveResize=0;outlineConnect=0;rounded=1;shadow=0;comic=0;labelBackgroundColor=none;strokeWidth=1;fontFamily=Verdana;fontSize=12;align=center;" vertex="1" parent="1">
          <mxGeometry x="177" y="207" width="100" height="387" as="geometry" />
        </mxCell>
        <mxCell id="B5NuY8xFC4fIw8X8gln_-8" value="" style="html=1;points=[];perimeter=orthogonalPerimeter;rounded=0;shadow=0;comic=0;labelBackgroundColor=none;strokeWidth=1;fontFamily=Verdana;fontSize=12;align=center;" vertex="1" parent="B5NuY8xFC4fIw8X8gln_-7">
          <mxGeometry x="45" y="100" width="10" height="68" as="geometry" />
        </mxCell>
        <mxCell id="B5NuY8xFC4fIw8X8gln_-9" value="" style="html=1;verticalAlign=bottom;endArrow=block;entryX=0;entryY=0;labelBackgroundColor=none;fontFamily=Verdana;fontSize=12;edgeStyle=elbowEdgeStyle;elbow=vertical;" edge="1" parent="1" source="B5NuY8xFC4fIw8X8gln_-8" target="B5NuY8xFC4fIw8X8gln_-2">
          <mxGeometry x="-0.0308" y="-57" relative="1" as="geometry">
            <mxPoint x="324" y="317" as="sourcePoint" />
            <mxPoint as="offset" />
          </mxGeometry>
        </mxCell>
        <mxCell id="B5NuY8xFC4fIw8X8gln_-10" value="&lt;font face=&quot;verdana&quot;&gt;&lt;span style=&quot;background-color: rgb(248 , 249 , 250)&quot;&gt;需要收藏的商品&lt;/span&gt;&lt;/font&gt;" style="edgeLabel;html=1;align=center;verticalAlign=middle;resizable=0;points=[];" vertex="1" connectable="0" parent="B5NuY8xFC4fIw8X8gln_-9">
          <mxGeometry x="-0.1846" y="-2" relative="1" as="geometry">
            <mxPoint x="18" y="-2" as="offset" />
          </mxGeometry>
        </mxCell>
        <mxCell id="B5NuY8xFC4fIw8X8gln_-11" value="卖家" style="shape=umlActor;verticalLabelPosition=bottom;verticalAlign=top;html=1;outlineConnect=0;" vertex="1" parent="1">
          <mxGeometry x="191.5" y="119" width="30" height="60" as="geometry" />
        </mxCell>
        <mxCell id="B5NuY8xFC4fIw8X8gln_-12" style="edgeStyle=orthogonalEdgeStyle;rounded=0;orthogonalLoop=1;jettySize=auto;html=1;entryX=-0.059;entryY=0.009;entryDx=0;entryDy=0;entryPerimeter=0;" edge="1" parent="1" source="B5NuY8xFC4fIw8X8gln_-2" target="B5NuY8xFC4fIw8X8gln_-4">
          <mxGeometry relative="1" as="geometry">
            <Array as="points">
              <mxPoint x="432" y="337" />
              <mxPoint x="432" y="337" />
            </Array>
          </mxGeometry>
        </mxCell>
        <mxCell id="B5NuY8xFC4fIw8X8gln_-13" value="将信息发送给系统" style="edgeLabel;html=1;align=center;verticalAlign=middle;resizable=0;points=[];" vertex="1" connectable="0" parent="B5NuY8xFC4fIw8X8gln_-12">
          <mxGeometry x="0.0769" y="1" relative="1" as="geometry">
            <mxPoint as="offset" />
          </mxGeometry>
        </mxCell>
        <mxCell id="B5NuY8xFC4fIw8X8gln_-14" style="edgeStyle=orthogonalEdgeStyle;rounded=0;orthogonalLoop=1;jettySize=auto;html=1;" edge="1" parent="1" source="B5NuY8xFC4fIw8X8gln_-4">
          <mxGeometry relative="1" as="geometry">
            <mxPoint x="687" y="381" as="targetPoint" />
            <Array as="points">
              <mxPoint x="590" y="381" />
              <mxPoint x="590" y="381" />
            </Array>
          </mxGeometry>
        </mxCell>
        <mxCell id="B5NuY8xFC4fIw8X8gln_-15" value="写入用户数据中" style="edgeLabel;html=1;align=center;verticalAlign=middle;resizable=0;points=[];" vertex="1" connectable="0" parent="B5NuY8xFC4fIw8X8gln_-14">
          <mxGeometry x="-0.2542" y="-1" relative="1" as="geometry">
            <mxPoint x="17" as="offset" />
          </mxGeometry>
        </mxCell>
        <mxCell id="B5NuY8xFC4fIw8X8gln_-16" value="买家" style="shape=umlActor;verticalLabelPosition=bottom;verticalAlign=top;html=1;outlineConnect=0;" vertex="1" parent="1">
          <mxGeometry x="232.5" y="119" width="30" height="60" as="geometry" />
        </mxCell>
        <mxCell id="B5NuY8xFC4fIw8X8gln_-17" style="edgeStyle=orthogonalEdgeStyle;rounded=0;orthogonalLoop=1;jettySize=auto;html=1;entryX=0.86;entryY=0.706;entryDx=0;entryDy=0;entryPerimeter=0;" edge="1" parent="1" source="B5NuY8xFC4fIw8X8gln_-6" target="B5NuY8xFC4fIw8X8gln_-4">
          <mxGeometry relative="1" as="geometry" />
        </mxCell>
        <mxCell id="B5NuY8xFC4fIw8X8gln_-18" value="返回执行结果" style="edgeLabel;html=1;align=center;verticalAlign=middle;resizable=0;points=[];" vertex="1" connectable="0" parent="B5NuY8xFC4fIw8X8gln_-17">
          <mxGeometry x="0.2785" y="1" relative="1" as="geometry">
            <mxPoint x="20" y="-1" as="offset" />
          </mxGeometry>
        </mxCell>
        <mxCell id="B5NuY8xFC4fIw8X8gln_-19" style="edgeStyle=orthogonalEdgeStyle;rounded=0;orthogonalLoop=1;jettySize=auto;html=1;entryX=1.26;entryY=0.718;entryDx=0;entryDy=0;entryPerimeter=0;" edge="1" parent="1" source="B5NuY8xFC4fIw8X8gln_-4" target="B5NuY8xFC4fIw8X8gln_-2">
          <mxGeometry relative="1" as="geometry">
            <Array as="points">
              <mxPoint x="515" y="453" />
              <mxPoint x="515" y="453" />
            </Array>
          </mxGeometry>
        </mxCell>
        <mxCell id="B5NuY8xFC4fIw8X8gln_-20" value="收藏成功" style="edgeLabel;html=1;align=center;verticalAlign=middle;resizable=0;points=[];" vertex="1" connectable="0" parent="B5NuY8xFC4fIw8X8gln_-19">
          <mxGeometry x="0.194" relative="1" as="geometry">
            <mxPoint x="14" y="-2" as="offset" />
          </mxGeometry>
        </mxCell>
      </root>
    </mxGraphModel>
  </diagram>
</mxfile>
